<svg viewBox="0 0 32 32" xmlns="http://www.w3.org/2000/svg">
            <g data-name="37. Receipt">
              <path
                d="M15 30H3a3 3 0 0 1-3-3V1A1 1 0 0 1 .62.08a1 1 0 0 1 1.09.21l1.58 1.59a1 1 0 0 0 1.42 0L6.29.29a1 1 0 0 1 1.42 0l1.58 1.59a1 1 0 0 0 1.42 0L12.29.29a1 1 0 0 1 1.42 0l1.58 1.59a1 1 0 0 0 1.42 0L18.29.29a1 1 0 0 1 1.42 0l1.58 1.59a1 1 0 0 0 1.42 0L24.29.29a1 1 0 0 1 1.09-.21A1 1 0 0 1 26 1v14a1 1 0 0 1-2 0V3.41a3.07 3.07 0 0 1-4.12-.12L19 2.41l-.88.88a3.06 3.06 0 0 1-4.24 0L13 2.41l-.88.88a3.06 3.06 0 0 1-4.24 0L7 2.41l-.88.88A3.07 3.07 0 0 1 2 3.41V27a1 1 0 0 0 1 1h12a1 1 0 0 1 0 2Z"
                fill="#fff"
                class="fill-04009a"></path>
              <path
                d="M15 25H6a1 1 0 0 1 0-2h9a1 1 0 0 1 0 2ZM15 21H6a1 1 0 0 1 0-2h9a1 1 0 0 1 0 2ZM17 17H6a1 1 0 0 1 0-2h11a1 1 0 0 1 0 2ZM20 13H6a1 1 0 0 1 0-2h14a1 1 0 0 1 0 2ZM20 9H6a1 1 0 0 1 0-2h14a1 1 0 0 1 0 2ZM23 19h4v3a1 1 0 0 1-1 1h-2a1 1 0 0 1-1-1v-3Z"
                fill="#ec5242"
                class="fill-77acf1"></path>
              <path d="M29 32h-8a3 3 0 0 1-3-3v-8a3 3 0 0 1 3-3h8a3 3 0 0 1 3 3v8a3 3 0 0 1-3 3Zm-8-12a1 1 0 0 0-1 1v8a1 1 0 0 0 1 1h8a1 1 0 0 0 1-1v-8a1 1 0 0 0-1-1Z" fill="#fff"></path>
              <path d="M24 28h-1a1 1 0 0 1 0-2h1a1 1 0 0 1 0 2Z" fill="#fff" class="grey"></path>
            </g>
          </svg>